<svg xmlns="http://www.w3.org/2000/svg" width="800" height="400" style="background:#fff">
<text x="400" y="20" font-family="sans-serif" font-size="14" text-anchor="middle" font-weight="bold">Lines of Code Over Time</text>
<text x="420" y="395" font-family="sans-serif" font-size="11" text-anchor="middle">Commit</text>
<text x="15" y="195" font-family="sans-serif" font-size="11" text-anchor="middle" transform="rotate(-90,15,195)">Lines of Code</text>
<line x1="60" y1="360.0" x2="780" y2="360.0" stroke="#ddd"/>
<text x="55" y="364.0" font-family="sans-serif" font-size="10" text-anchor="end">0k</text>
<line x1="60" y1="307.1" x2="780" y2="307.1" stroke="#ddd"/>
<text x="55" y="311.1" font-family="sans-serif" font-size="10" text-anchor="end">4k</text>
<line x1="60" y1="254.1" x2="780" y2="254.1" stroke="#ddd"/>
<text x="55" y="258.1" font-family="sans-serif" font-size="10" text-anchor="end">8k</text>
<line x1="60" y1="201.2" x2="780" y2="201.2" stroke="#ddd"/>
<text x="55" y="205.2" font-family="sans-serif" font-size="10" text-anchor="end">12k</text>
<line x1="60" y1="148.3" x2="780" y2="148.3" stroke="#ddd"/>
<text x="55" y="152.3" font-family="sans-serif" font-size="10" text-anchor="end">16k</text>
<line x1="60" y1="95.3" x2="780" y2="95.3" stroke="#ddd"/>
<text x="55" y="99.3" font-family="sans-serif" font-size="10" text-anchor="end">20k</text>
<line x1="60" y1="42.4" x2="780" y2="42.4" stroke="#ddd"/>
<text x="55" y="46.4" font-family="sans-serif" font-size="10" text-anchor="end">24k</text>
<text x="60.0" y="375" font-family="sans-serif" font-size="10" text-anchor="middle">1</text>
<text x="180.0" y="375" font-family="sans-serif" font-size="10" text-anchor="middle">82</text>
<text x="300.0" y="375" font-family="sans-serif" font-size="10" text-anchor="middle">163</text>
<text x="420.0" y="375" font-family="sans-serif" font-size="10" text-anchor="middle">244</text>
<text x="540.0" y="375" font-family="sans-serif" font-size="10" text-anchor="middle">325</text>
<text x="660.0" y="375" font-family="sans-serif" font-size="10" text-anchor="middle">406</text>
<text x="780.0" y="375" font-family="sans-serif" font-size="10" text-anchor="middle">487</text>
<polyline fill="none" stroke="#2563eb" stroke-width="1.5" points="60.0,360.0 61.5,360.0 63.0,360.0 64.4,360.0 65.9,360.0 67.4,360.0 68.9,360.0 70.4,359.9 71.9,360.0 73.3,360.0 74.8,360.0 76.3,360.0 77.8,359.8 79.3,359.0 80.7,358.0 82.2,356.3 83.7,355.4 85.2,353.2 86.7,352.4 88.1,351.6 89.6,350.5 91.1,348.9 92.6,347.5 94.1,345.1 95.6,342.6 97.0,341.3 98.5,341.2 100.0,339.9 101.5,337.4 103.0,336.2 104.4,334.5 105.9,332.4 107.4,332.2 108.9,331.6 110.4,327.9 111.9,326.6 113.3,326.0 114.8,325.7 116.3,325.2 117.8,324.0 119.3,323.8 120.7,323.8 122.2,322.3 123.7,322.3 125.2,322.3 126.7,319.4 128.1,317.7 129.6,316.4 131.1,311.4 132.6,309.4 134.1,303.9 135.6,303.1 137.0,301.9 138.5,301.9 140.0,301.3 141.5,301.3 143.0,301.3 144.4,301.3 145.9,300.2 147.4,299.3 148.9,298.4 150.4,298.2 151.9,295.2 153.3,295.2 154.8,295.2 156.3,295.2 157.8,295.2 159.3,295.2 160.7,294.8 162.2,294.8 163.7,294.8 165.2,294.8 166.7,293.3 168.1,292.7 169.6,292.2 171.1,291.4 172.6,290.5 174.1,289.9 175.6,289.6 177.0,289.6 178.5,288.6 180.0,287.0 181.5,286.9 183.0,286.5 184.4,286.5 185.9,285.7 187.4,285.2 188.9,285.0 190.4,285.0 191.9,284.7 193.3,284.4 194.8,284.3 196.3,284.3 197.8,283.5 199.3,283.5 200.7,277.4 202.2,275.0 203.7,274.0 205.2,273.4 206.7,272.9 208.1,272.0 209.6,270.2 211.1,266.4 212.6,266.0 214.1,265.6 215.6,265.1 217.0,265.1 218.5,264.6 220.0,264.2 221.5,263.6 223.0,263.6 224.4,262.9 225.9,262.9 227.4,262.9 228.9,262.2 230.4,259.1 231.9,257.3 233.3,256.8 234.8,256.2 236.3,253.7 237.8,247.9 239.3,246.9 240.7,247.0 242.2,246.9 243.7,246.9 245.2,245.7 246.7,245.6 248.1,245.1 249.6,244.1 251.1,245.6 252.6,245.8 254.1,245.8 255.6,247.4 257.0,247.4 258.5,247.4 260.0,247.4 261.5,247.4 263.0,247.4 264.4,247.4 265.9,246.4 267.4,246.4 268.9,244.9 270.4,242.9 271.9,241.8 273.3,240.7 274.8,238.8 276.3,238.2 277.8,238.0 279.3,235.7 280.7,235.7 282.2,235.4 283.7,235.4 285.2,233.2 286.7,233.2 288.1,232.9 289.6,231.1 291.1,231.1 292.6,228.7 294.1,228.7 295.6,228.7 297.0,228.7 298.5,228.7 300.0,230.5 301.5,229.9 303.0,229.2 304.4,225.8 305.9,222.7 307.4,219.7 308.9,215.9 310.4,215.9 311.9,213.9 313.3,212.6 314.8,210.5 316.3,209.5 317.8,208.4 319.3,208.4 320.7,205.8 322.2,204.2 323.7,203.6 325.2,204.8 326.7,204.8 328.1,204.8 329.6,204.8 331.1,202.0 332.6,201.9 334.1,201.7 335.6,201.5 337.0,200.7 338.5,199.7 340.0,198.3 341.5,198.3 343.0,198.3 344.4,197.6 345.9,196.2 347.4,196.1 348.9,194.7 350.4,194.3 351.9,191.8 353.3,189.2 354.8,188.9 356.3,188.8 357.8,191.5 359.3,191.5 360.7,191.5 362.2,191.4 363.7,191.4 365.2,191.4 366.7,191.4 368.1,199.0 369.6,198.7 371.1,198.7 372.6,198.6 374.1,199.0 375.6,200.1 377.0,200.1 378.5,200.1 380.0,200.1 381.5,199.2 383.0,198.8 384.4,198.3 385.9,197.4 387.4,195.7 388.9,194.9 390.4,194.0 391.9,193.4 393.3,192.4 394.8,192.4 396.3,192.4 397.8,192.2 399.3,191.5 400.7,188.5 402.2,188.0 403.7,188.0 405.2,188.0 406.7,186.1 408.1,186.1 409.6,184.9 411.1,181.7 412.6,179.6 414.1,180.0 415.6,179.2 417.0,179.1 418.5,178.0 420.0,177.7 421.5,177.4 423.0,176.5 424.4,175.0 425.9,175.0 427.4,175.0 428.9,170.2 430.4,168.1 431.9,167.4 433.3,164.1 434.8,164.1 436.3,164.1 437.8,158.8 439.3,158.3 440.7,158.3 442.2,158.3 443.7,158.3 445.2,158.3 446.7,156.4 448.1,154.7 449.6,160.9 451.1,160.9 452.6,160.9 454.1,160.9 455.6,160.9 457.0,160.9 458.5,161.0 460.0,160.7 461.5,159.9 463.0,159.9 464.4,159.0 465.9,157.8 467.4,157.6 468.9,157.4 470.4,157.4 471.9,154.0 473.3,151.0 474.8,150.8 476.3,146.3 477.8,145.3 479.3,145.3 480.7,143.1 482.2,140.2 483.7,134.2 485.2,133.0 486.7,132.7 488.1,132.7 489.6,132.7 491.1,130.2 492.6,130.2 494.1,123.1 495.6,122.5 497.0,122.2 498.5,120.3 500.0,119.8 501.5,117.6 503.0,116.4 504.4,116.0 505.9,115.3 507.4,115.2 508.9,113.4 510.4,113.2 511.9,112.5 513.3,112.0 514.8,111.9 516.3,111.8 517.8,111.7 519.3,111.7 520.7,111.7 522.2,111.7 523.7,111.6 525.2,111.6 526.7,111.3 528.1,111.3 529.6,111.1 531.1,104.7 532.6,99.7 534.1,99.6 535.6,99.6 537.0,97.7 538.5,95.0 540.0,90.5 541.5,85.8 543.0,87.6 544.4,87.6 545.9,87.6 547.4,80.7 548.9,77.5 550.4,76.8 551.9,76.5 553.3,75.7 554.8,78.4 556.3,100.7 557.8,103.2 559.3,103.5 560.7,125.1 562.2,125.1 563.7,125.1 565.2,125.8 566.7,131.7 568.1,132.1 569.6,132.1 571.1,126.7 572.6,125.3 574.1,125.2 575.6,125.2 577.0,124.9 578.5,125.0 580.0,133.1 581.5,133.1 583.0,137.8 584.4,141.6 585.9,141.6 587.4,143.0 588.9,143.0 590.4,163.1 591.9,163.0 593.3,162.8 594.8,161.7 596.3,161.3 597.8,144.7 599.3,141.7 600.7,140.3 602.2,135.5 603.7,130.8 605.2,125.1 606.7,124.9 608.1,124.9 609.6,124.8 611.1,124.8 612.6,124.6 614.1,124.6 615.6,123.9 617.0,123.9 618.5,126.7 620.0,126.2 621.5,124.2 623.0,124.3 624.4,114.9 625.9,107.5 627.4,108.4 628.9,108.1 630.4,107.9 631.9,107.7 633.3,108.1 634.8,107.6 636.3,107.6 637.8,107.5 639.3,107.5 640.7,107.5 642.2,106.6 643.7,104.5 645.2,102.1 646.7,98.5 648.1,99.2 649.6,98.5 651.1,97.6 652.6,96.7 654.1,94.4 655.6,94.2 657.0,93.9 658.5,93.9 660.0,91.8 661.5,91.5 663.0,91.2 664.4,91.4 665.9,91.0 667.4,87.7 668.9,87.1 670.4,86.7 671.9,86.5 673.3,86.5 674.8,86.1 676.3,86.1 677.8,86.1 679.3,86.1 680.7,85.8 682.2,85.6 683.7,85.6 685.2,85.6 686.7,82.5 688.1,82.5 689.6,81.9 691.1,81.9 692.6,82.1 694.1,81.4 695.6,80.3 697.0,80.2 698.5,80.0 700.0,80.0 701.5,80.3 703.0,80.3 704.4,70.4 705.9,70.1 707.4,69.4 708.9,69.2 710.4,68.5 711.9,68.5 713.3,62.7 714.8,65.7 716.3,65.7 717.8,62.6 719.3,62.3 720.7,62.3 722.2,62.3 723.7,62.1 725.2,60.4 726.7,59.9 728.1,59.9 729.6,60.0 731.1,59.9 732.6,59.7 734.1,62.3 735.6,63.0 737.0,63.0 738.5,53.6 740.0,51.6 741.5,63.5 743.0,47.0 744.4,43.1 745.9,42.4 747.4,39.9 748.9,39.9 750.4,37.6 751.9,37.4 753.3,36.3 754.8,34.5 756.3,34.8 757.8,36.2 759.3,36.1 760.7,39.9 762.2,39.4 763.7,37.4 765.2,37.4 766.7,37.3 768.1,36.5 769.6,30.0 771.1,30.0 772.6,32.1 774.1,32.2 775.6,33.0 777.0,33.0 778.5,33.0 780.0,33.0 "/>
</svg>
